PathFileType	4	(X/Y/Z)	/Users/itak/Documents/Research/Walk-IL/dataset/trc/00493_00167.trc
DataRate	CameraRate	NumFrames	NumMarkers	Units	OrigDataRate	OrigDataStartFrame	OrigNumFrames
100.000000	100.000000	4	53	mm	100.000000	223	596
Frame#	Time	RPSI			LPSI			L3			STRN			T10			C7			CLAV			RBAK			LBAK			LSHO			LUPA			LAEL			LAOL			LWTS			LWPS			LFRA			LIFD			LHPS			LHTS			RSHO			RUPA			RAEL			RAOL			RWTS			RWPS			RFRA			RIFD			RHTS			RHPS			RBHD			LFHD			RFHD			LBHD			LHIP			RHIP			RASI			LASI			LKNE			LTHI			LANK			LTIP			LTOE			LMT1			LMT5			LHEE			RKNE			RTHI			RANK			RTIP			RTOE			RMT1			RMT5			RHEE			
		X1	Y1	Z1	X2	Y2	Z2	X3	Y3	Z3	X4	Y4	Z4	X5	Y5	Z5	X6	Y6	Z6	X7	Y7	Z7	X8	Y8	Z8	X9	Y9	Z9	X10	Y10	Z10	X11	Y11	Z11	X12	Y12	Z12	X13	Y13	Z13	X14	Y14	Z14	X15	Y15	Z15	X16	Y16	Z16	X17	Y17	Z17	X18	Y18	Z18	X19	Y19	Z19	X20	Y20	Z20	X21	Y21	Z21	X22	Y22	Z22	X23	Y23	Z23	X24	Y24	Z24	X25	Y25	Z25	X26	Y26	Z26	X27	Y27	Z27	X28	Y28	Z28	X29	Y29	Z29	X30	Y30	Z30	X31	Y31	Z31	X32	Y32	Z32	X33	Y33	Z33	X34	Y34	Z34	X35	Y35	Z35	X36	Y36	Z36	X37	Y37	Z37	X38	Y38	Z38	X39	Y39	Z39	X40	Y40	Z40	X41	Y41	Z41	X42	Y42	Z42	X43	Y43	Z43	X44	Y44	Z44	X45	Y45	Z45	X46	Y46	Z46	X47	Y47	Z47	X48	Y48	Z48	X49	Y49	Z49	X50	Y50	Z50	X51	Y51	Z51	X52	Y52	Z52	X53	Y53	Z53	

224	2.23	-1350.948608398438	918.2640991210938	-197.0402221679688	-1264.119018554688	903.3469848632812	-309.0502014160156	-1310.398681640625	1012.662536621094	-219.375732421875	-1056.050659179688	1189.216186523438	-77.12464141845703	-1310.03955078125	1136.6953125	-216.9764862060547	-1240.04248046875	1399.789306640625	-168.3087463378906	-1076.680541992188	1303.925659179688	-99.04907989501953	-1347.34765625	1288.636596679688	-116.0348892211914	-1229.525146484375	1351.099487304688	-271.5744323730469	-1102.539672851562	1362.237670898438	-298.7690734863281	-1083.745971679688	1243.155883789062	-394.2564086914062	-1079.678588867188	1027.746948242188	-426.3069763183594	-1180.057983398438	1026.840698242188	-397.0372619628906	-1063.902954101562	810.38427734375	-375.5406494140625	-1083.499267578125	808.321533203125	-447.2798767089844	-1072.547729492188	938.0867309570312	-435.8815002441406	-1091.178833007812	651.0276489257812	-398.7405395507812	-1091.656127929688	730.6503295898438	-453.4760437011719	-1063.840087890625	722.7154541015625	-387.1527709960938	-1254.664794921875	1368.74169921875	4.307585716247559	-1311.590087890625	1313.560424804688	62.44684219360352	-1368.695068359375	1033.749877929688	118.8025207519531	-1396.573974609375	1020.040710449219	58.28644180297852	-1288.398681640625	814.2297973632812	128.1199340820312	-1374.399169921875	813.4600219726562	150.3086547851562	-1378.180786132812	976.4307250976562	129.9502563476562	-1313.83154296875	660.0348510742188	136.7359924316406	-1294.549194335938	716.7904052734375	145.9726715087891	-1371.078002929688	724.0563354492188	155.9227447509766	-1192.835571289062	1594.147583007812	-52.93230438232422	-1019.091796875	1606.994140625	-165.1168060302734	-1056.439331054688	1612.787231445312	-40.34058380126953	-1157.224487304688	1589.927856445312	-227.1398620605469	-1065.97705078125	820.09033203125	-302.0367431640625	-1365.157958984375	817.6990966796875	-19.57209014892578	-1237.321655273438	843.1331176757812	3.395452499389648	-1063.984130859375	861.6166381835938	-180.9064788818359	-904.676025390625	461.7425842285156	-146.4310607910156	-936.0996704101562	607.420166015625	-190.7369232177734	-915.7013549804688	42.95660781860352	-180.7971649169922	-885.1328735351562	307.9902954101562	-160.9933929443359	-775.3262939453125	88.77406311035156	5.824995994567871	-849.68994140625	68.66835784912109	-13.13871574401855	-790.5250854492188	71.27796173095703	-104.49951171875	-989.09375	40.06670379638672	-153.94580078125	-1416.84033203125	441.2635803222656	-85.90890502929688	-1356.117065429688	681.0884399414062	-3.248133182525635	-1618.6630859375	62.64464569091797	-206.8660736083984	-1473.173461914062	308.3735046386719	-111.280403137207	-1406.480590820312	47.56654357910156	-159.0165405273438	-1445.59716796875	57.48165130615234	-213.8642578125	-1514.210083007812	44.25679779052734	-129.1827087402344	-1654.330810546875	82.10932922363281	-277.005615234375	
225	2.24	-1340.543579101562	917.9113159179688	-193.8044281005859	-1253.856079101562	902.9589233398438	-305.8780517578125	-1299.952392578125	1011.7841796875	-216.5099487304688	-1045.921020507812	1189.025024414062	-74.86534118652344	-1299.638549804688	1136.098022460938	-214.9827575683594	-1229.9619140625	1399.2470703125	-166.7689971923828	-1066.640747070312	1303.653198242188	-97.07891845703125	-1337.28125	1288.132202148438	-114.5923309326172	-1219.206665039062	1350.367919921875	-269.9480285644531	-1092.138427734375	1361.460327148438	-296.9970397949219	-1073.423828125	1242.048217773438	-392.2214660644531	-1070.042846679688	1026.436157226562	-423.4258728027344	-1170.342651367188	1025.961303710938	-394.2721252441406	-1055.729248046875	809.0120849609375	-372.3193359375	-1075.074096679688	807.046875	-444.1696166992188	-1063.384765625	936.7650146484375	-432.8876953125	-1084.103759765625	649.8146362304688	-395.5729064941406	-1083.766357421875	729.3890991210938	-450.3460693359375	-1056.252319335938	721.2765502929688	-383.8843383789062	-1244.913940429688	1368.549194335938	5.822627067565918	-1302.105102539062	1313.491088867188	63.80221939086914	-1360.364868164062	1034.024536132812	120.1757278442383	-1387.733032226562	1020.121704101562	59.4484977722168	-1279.845947265625	814.6656494140625	130.7304077148438	-1366.04833984375	813.820556640625	152.2311096191406	-1369.883911132812	976.7066650390625	131.4028625488281	-1305.07666015625	660.4741821289062	139.6969909667969	-1285.985717773438	717.2825927734375	148.8860931396484	-1362.615600585938	724.4609375	158.1927490234375	-1182.90087890625	1593.593139648438	-51.13764953613281	-1009.377563476562	1606.730590820312	-163.5556182861328	-1046.510009765625	1612.364135742188	-38.75551223754883	-1147.606567382812	1589.571899414062	-225.3785400390625	-1055.633666992188	819.5208129882812	-298.1190490722656	-1355.33837890625	817.6871948242188	-15.96548080444336	-1226.891235351562	843.0272827148438	7.002675533294678	-1053.557006835938	861.4073486328125	-177.1999664306641	-895.503173828125	460.6354675292969	-142.2522277832031	-926.1898803710938	606.2119750976562	-187.2252807617188	-914.8822021484375	42.93804550170898	-180.1404571533203	-878.7194213867188	306.26123046875	-157.4483947753906	-773.1166381835938	81.99143981933594	7.630306720733643	-848.2141723632812	64.36074066162109	-11.81825065612793	-788.880126953125	66.81706237792969	-103.1406860351562	-988.40673828125	41.27521514892578	-153.1766662597656	-1408.921997070312	441.6986083984375	-81.66447448730469	-1346.695068359375	681.1803588867188	0.4023227393627167	-1617.717407226562	66.45367431640625	-205.3551635742188	-1467.781982421875	309.9922180175781	-107.7559127807617	-1406.17529296875	47.42200088500977	-158.8350219726562	-1445.046875	57.92814254760742	-212.9974822998047	-1513.686645507812	44.16398620605469	-128.7550048828125	-1652.94921875	88.68543243408203	-275.1654663085938	
226	2.25	-1329.999267578125	917.6751708984375	-190.4226989746094	-1243.44921875	902.8573608398438	-302.5889282226562	-1289.23876953125	1011.121520996094	-213.5111999511719	-1035.567749023438	1189.092041015625	-72.63709259033203	-1289.183959960938	1135.707763671875	-212.9719696044922	-1219.732177734375	1398.920654296875	-165.2529602050781	-1056.408325195312	1303.633056640625	-95.13988494873047	-1327.038818359375	1287.822998046875	-113.1302947998047	-1208.737182617188	1349.847778320312	-268.3294677734375	-1081.591674804688	1360.919921875	-295.2380676269531	-1062.908569335938	1241.178466796875	-390.1893920898438	-1060.172241210938	1025.34423828125	-420.5226745605469	-1160.419799804688	1025.302124023438	-391.5057678222656	-1047.185791015625	807.8951416015625	-368.9291076660156	-1066.275268554688	805.9712524414062	-440.8896789550781	-1053.92041015625	935.66015625	-429.8083190917969	-1076.625	648.8397216796875	-392.1205444335938	-1075.479248046875	728.321044921875	-446.9849548339844	-1048.275634765625	720.0914916992188	-380.3904724121094	-1234.982421875	1368.575439453125	7.325944900512695	-1292.42138671875	1313.623046875	65.13191223144531	-1351.864013671875	1034.501953125	121.4249877929688	-1378.681518554688	1020.408508300781	60.47778701782227	-1271.083618164062	815.326171875	133.2543182373047	-1357.488403320312	814.3749389648438	154.013671875	-1361.419311523438	977.1829223632812	132.7351989746094	-1296.055053710938	661.1322631835938	142.5237884521484	-1277.197875976562	718.007568359375	151.7159118652344	-1353.92333984375	725.0559692382812	160.3113403320312	-1172.786865234375	1593.277587890625	-49.3733024597168	-999.48828125	1606.684814453125	-162.0725708007812	-1036.422119140625	1612.17724609375	-37.22879409790039	-1137.840209960938	1589.427368164062	-223.6804656982422	-1045.15478515625	819.2913208007812	-294.2096557617188	-1345.223876953125	817.6976928710938	-12.28082466125488	-1216.2265625	843.0989379882812	10.60075855255127	-1042.955810546875	861.4552612304688	-173.5192108154297	-886.360107421875	459.6246032714844	-138.1646881103516	-916.2002563476562	605.2692260742188	-183.8421173095703	-913.9052734375	43.11469268798828	-179.4512786865234	-872.183837890625	304.7155151367188	-153.8702087402344	-771.0186157226562	75.36748504638672	9.48961067199707	-846.8921508789062	60.47074508666992	-10.41336154937744	-787.20068359375	62.76422882080078	-101.7599182128906	-987.5736083984375	42.65966796875	-152.4168395996094	-1400.31494140625	442.0673217773438	-76.86648559570312	-1336.848754882812	681.326904296875	4.220232009887695	-1616.53271484375	70.69190979003906	-203.6112365722656	-1461.817626953125	311.6716613769531	-103.7304840087891	-1405.895751953125	47.30078887939453	-158.6573944091797	-1444.399169921875	58.43113327026367	-212.0760803222656	-1513.08544921875	44.06535720825195	-128.2931976318359	-1651.100463867188	95.83182525634766	-273.0086364746094	
227	2.26	-1319.362915039062	917.5432739257812	-186.9224853515625	-1232.904052734375	902.9955444335938	-299.1831970214844	-1278.314453125	1010.711608886719	-210.4118499755859	-1025.020141601562	1189.414672851562	-70.43756103515625	-1278.73193359375	1135.536010742188	-210.9460144042969	-1209.37841796875	1398.820678710938	-163.7533111572266	-1046.01220703125	1303.86279296875	-93.224853515625	-1316.65625	1287.723388671875	-111.6279449462891	-1198.141723632812	1349.545288085938	-266.7089538574219	-1070.929565429688	1360.623168945312	-293.4823303222656	-1052.209106445312	1240.551025390625	-388.1475524902344	-1050.060913085938	1024.48193359375	-417.5912170410156	-1150.297729492188	1024.865112304688	-388.7396850585938	-1038.2548828125	807.039306640625	-365.3806457519531	-1057.087890625	805.1007690429688	-437.441162109375	-1044.154052734375	934.7818603515625	-426.6384582519531	-1068.70751953125	648.11181640625	-388.3915710449219	-1066.782104492188	727.4570922851562	-443.3999938964844	-1039.8798828125	719.1687622070312	-376.6841735839844	-1224.885986328125	1368.825927734375	8.828022003173828	-1282.55126953125	1313.9638671875	66.45526885986328	-1343.193969726562	1035.179321289062	122.5647430419922	-1369.427124023438	1020.900146484375	61.39002227783203	-1262.116943359375	816.2049560546875	135.6921539306641	-1348.720581054688	815.1163330078125	155.6656188964844	-1352.787231445312	977.857177734375	133.9599456787109	-1286.7783203125	662.0003051757812	145.2114562988281	-1268.1875	718.95458984375	154.4474792480469	-1345.0029296875	725.8319091796875	162.2747192382812	-1162.512329101562	1593.210815429688	-47.62995147705078	-989.4404296875	1606.8466796875	-160.6656951904297	-1026.19091796875	1612.229614257812	-35.75229644775391	-1127.945068359375	1589.492309570312	-222.0396575927734	-1034.5693359375	819.393310546875	-290.3286437988281	-1334.846313476562	817.7303466796875	-8.545968055725098	-1205.440795898438	843.3473510742188	14.14457988739014	-1032.218994140625	861.7503662109375	-169.8728942871094	-877.3146362304688	458.6576843261719	-134.2061767578125	-906.2034301757812	604.56005859375	-180.5866241455078	-912.7756958007812	43.41400909423828	-178.7372131347656	-865.5947265625	303.2841491699219	-150.3212738037109	-769.0169677734375	69.01522064208984	11.34153079986572	-845.6834716796875	57.07118988037109	-8.984366416931152	-785.4700317382812	59.16964721679688	-100.4143600463867	-986.5916748046875	44.11605453491211	-151.6845397949219	-1390.962158203125	442.3436279296875	-71.42118072509766	-1326.587036132812	681.5305786132812	8.220705986022949	-1615.026733398438	75.38636779785156	-201.6360931396484	-1455.22705078125	313.3984680175781	-99.11798858642578	-1405.663452148438	47.20328140258789	-158.4960174560547	-1443.634155273438	58.98749923706055	-211.0991516113281	-1512.407348632812	43.96683502197266	-127.8142929077148	-1648.639770507812	103.5822982788086	-270.4998474121094	
